#!OML:ASF H:\Punching\Project 1\Capture day 1\Session 1\female.ASF
:FULLY-SPECIFIED
:DEGREES
1612
root -1.06518 15.947 -1.66783 -171.982 83.0345 -184.561
lowerback -5.16719 1.2532 2.80305
upperback -5.51879 1.76563 -0.132098
thorax -2.71151 0.862851 -1.66028
lowerneck -1.09537 11.6343 21.9965
upperneck 32.6783 23.342 -16.4152
head 16.8653 12.2517 -6.60749
rclavicle -4.10925e-014 -1.63003e-014
rhumerus -34.5676 -11.3976 -64.1362
rradius 28.0374
rwrist -0.0733766
rhand -21.4249 -11.9651
rfingers 7.12502
rthumb 4.96409 -41.8869
lclavicle -4.10925e-014 -1.63003e-014
lhumerus -39.163 1.35423 75.1118
lradius 32.1553
lwrist -19.2831
lhand -7.16717 13.1514
lfingers 7.12502
lthumb 18.71 42.2716
rfemur -19.6215 16.292 5.98027
rtibia 32.7477
rfoot -15.4938 0.779414
rtoes -0.708206
lfemur -17.4421 -12.3065 -17.8914
ltibia 16.343
lfoot -9.79328 6.889
ltoes 0.186022
1613
root -1.07824 15.9504 -1.75417 -173.234 84.1885 -185.867
lowerback -5.11177 1.28364 2.73317
upperback -5.49264 1.80394 -0.187498
thorax -2.71315 0.881564 -1.67802
lowerneck -1.21913 11.6645 21.9358
upperneck 32.5631 23.2895 -16.4739
head 16.8196 12.1901 -6.6266
rclavicle -1.35422e-014 -5.1684e-015
rhumerus -34.5549 -11.7088 -64.0785
rradius 27.9685
rwrist 0.268461
rhand -21.2721 -11.8764
rfingers 7.12502
rthumb 5.11165 -41.7947
lclavicle -1.35422e-014 -5.1684e-015
lhumerus -38.981 1.05483 74.8188
lradius 32.3631
lwrist -18.9392
lhand -7.36896 13.2419
lfingers 7.12502
lthumb 18.5159 42.3807
rfemur -19.899 15.7808 6.05158
rtibia 33.0703
rfoot -15.332 -1.65356
rtoes 0.386164
lfemur -17.2366 -11.8692 -18.4249
ltibia 16.1984
lfoot -9.78355 7.54799
ltoes 0.561547
1614
root -1.09176 15.9523 -1.83656 -174.905 85.3188 -187.592
lowerback -5.0451 1.29725 2.62947
upperback -5.47657 1.82226 -0.214842
thorax -2.73426 0.891819 -1.64905
lowerneck -1.34554 11.6867 21.8574
upperneck 32.4599 23.2321 -16.5334
head 16.7768 12.1255 -6.64496
rclavicle -3.26131e-016 8.34896e-015
rhumerus -34.5332 -11.9158 -64.0772
rradius 27.9056
rwrist 0.705714
rhand -21.1299 -11.7507
rfingers 7.12502
rthumb 5.24892 -41.6657
lclavicle -3.26131e-016 8.34896e-015
lhumerus -38.8246 0.767275 74.5271
lradius 32.5585
lwrist -18.5598
lhand -7.57668 13.3442
lfingers 7.12502
lthumb 18.3161 42.5019
rfemur -20.1392 15.2059 6.22399
rtibia 33.3756
rfoot -15.2745 -4.19825
rtoes 1.52762
lfemur -17.0933 -11.4303 -18.9184
ltibia 16.1284
lfoot -9.80828 8.17002
ltoes 0.977518
1615
root -1.10413 15.9521 -1.91683 -177.158 86.44 -189.877
lowerback -4.96388 1.30855 2.55829
upperback -5.46456 1.83729 -0.234794
thorax -2.7674 0.899345 -1.63125
lowerneck -1.48128 11.6988 21.7698
upperneck 32.3802 23.1595 -16.5753
head 16.7391 12.0553 -6.65791
rclavicle -5.82066e-015 -5.1684e-015
rhumerus -34.5258 -12.0726 -64.1309
rradius 27.854
rwrist 1.23847
rhand -20.9941 -11.5929
rfingers 7.12502
rthumb 5.38 -41.5046
lclavicle -5.82066e-015 -5.1684e-015
lhumerus -38.6885 0.500993 74.2055
lradius 32.7311
lwrist -18.1847
lhand -7.77014 13.4378
lfingers 7.12502
lthumb 18.13 42.6129
rfemur -20.317 14.5831 6.50354
rtibia 33.66
rfoot -15.3764 -6.69508
rtoes 2.63019
lfemur -16.9849 -11.0519 -19.3602
ltibia 16.1464
lfoot -9.88366 8.84014
ltoes 1.42769
1616
root -1.11618 15.9506 -1.99371 -181.107 87.5444 -193.863
lowerback -4.87915 1.31345 2.50008
upperback -5.47022 1.84437 -0.262834
thorax -2.82076 0.902232 -1.62971
lowerneck -1.61322 11.7038 21.688
upperneck 32.324 23.0723 -16.5872
head 16.7036 11.9828 -6.66289
rclavicle -3.78933e-016 -1.39149e-014
rhumerus -34.548 -12.1629 -64.267
rradius 27.8255
rwrist 1.77502
rhand -20.8811 -11.4106
rfingers 7.12502
rthumb 5.48918 -41.3195
lclavicle -3.78933e-016 -1.39149e-014
lhumerus -38.573 0.298225 73.8208
lradius 32.8652
lwrist -17.874
lhand -7.94337 13.5091
lfingers 7.12502
lthumb 17.9633 42.6995
rfemur -20.4657 13.9168 6.86536
rtibia 33.9379
rfoot -15.6565 -9.02205
rtoes 3.53406
lfemur -16.9327 -10.6687 -19.7672
ltibia 16.2374
lfoot -10.0017 9.48949
ltoes 1.91676
1617
root -1.12726 15.948 -2.06844 -190.472 88.6153 -203.269
lowerback -4.80447 1.32411 2.49139
upperback -5.49001 1.85789 -0.31921
thorax -2.88086 0.906214 -1.68491
lowerneck -1.75425 11.6967 21.6347
upperneck 32.2981 22.9543 -16.5615
head 16.6743 11.9032 -6.66329
rclavicle -1.50331e-015 -7.15625e-015
rhumerus -34.6152 -12.2704 -64.4706
rradius 27.8151
rwrist 2.32382
rhand -20.7656 -11.2002
rfingers 7.12502
rthumb 5.60064 -41.1062
lclavicle -1.50331e-015 -7.15625e-015
lhumerus -38.4604 0.07784 73.3736
lradius 32.9658
lwrist -17.5701
lhand -8.09436 13.5697
lfingers 7.12502
lthumb 17.818 42.7735
rfemur -20.5874 13.2028 7.30608
rtibia 34.2218
rfoot -16.0993 -11.0749
rtoes 4.16456
lfemur -16.9253 -10.2793 -20.1395
ltibia 16.3826
lfoot -10.1517 10.1199
ltoes 2.40847
